ffmpeg version 4.2.4-1ubuntu0.1 Copyright (c) 2000-2020 the FFmpeg developers
  built with gcc 9 (Ubuntu 9.3.0-10ubuntu2)
  configuration: --prefix=/usr --extra-version=1ubuntu0.1 --toolchain=hardened --libdir=/usr/lib/x86_64-linux-gnu --incdir=/usr/include/x86_64-linux-gnu --arch=amd64 --enable-gpl --disable-stripping --enable-avresample --disable-filter=resample --enable-avisynth --enable-gnutls --enable-ladspa --enable-libaom --enable-libass --enable-libbluray --enable-libbs2b --enable-libcaca --enable-libcdio --enable-libcodec2 --enable-libflite --enable-libfontconfig --enable-libfreetype --enable-libfribidi --enable-libgme --enable-libgsm --enable-libjack --enable-libmp3lame --enable-libmysofa --enable-libopenjpeg --enable-libopenmpt --enable-libopus --enable-libpulse --enable-librsvg --enable-librubberband --enable-libshine --enable-libsnappy --enable-libsoxr --enable-libspeex --enable-libssh --enable-libtheora --enable-libtwolame --enable-libvidstab --enable-libvorbis --enable-libvpx --enable-libwavpack --enable-libwebp --enable-libx265 --enable-libxml2 --enable-libxvid --enable-libzmq --enable-libzvbi --enable-lv2 --enable-omx --enable-openal --enable-opencl --enable-opengl --enable-sdl2 --enable-libdc1394 --enable-libdrm --enable-libiec61883 --enable-nvenc --enable-chromaprint --enable-frei0r --enable-libx264 --enable-shared
  WARNING: library configuration mismatch
  avcodec     configuration: --prefix=/usr --extra-version=1ubuntu0.1 --toolchain=hardened --libdir=/usr/lib/x86_64-linux-gnu --incdir=/usr/include/x86_64-linux-gnu --arch=amd64 --enable-gpl --disable-stripping --enable-avresample --disable-filter=resample --enable-avisynth --enable-gnutls --enable-ladspa --enable-libaom --enable-libass --enable-libbluray --enable-libbs2b --enable-libcaca --enable-libcdio --enable-libcodec2 --enable-libflite --enable-libfontconfig --enable-libfreetype --enable-libfribidi --enable-libgme --enable-libgsm --enable-libjack --enable-libmp3lame --enable-libmysofa --enable-libopenjpeg --enable-libopenmpt --enable-libopus --enable-libpulse --enable-librsvg --enable-librubberband --enable-libshine --enable-libsnappy --enable-libsoxr --enable-libspeex --enable-libssh --enable-libtheora --enable-libtwolame --enable-libvidstab --enable-libvorbis --enable-libvpx --enable-libwavpack --enable-libwebp --enable-libx265 --enable-libxml2 --enable-libxvid --enable-libzmq --enable-libzvbi --enable-lv2 --enable-omx --enable-openal --enable-opencl --enable-opengl --enable-sdl2 --enable-libdc1394 --enable-libdrm --enable-libiec61883 --enable-nvenc --enable-chromaprint --enable-frei0r --enable-libx264 --enable-shared --enable-version3 --disable-doc --disable-programs --enable-libaribb24 --enable-liblensfun --enable-libopencore_amrnb --enable-libopencore_amrwb --enable-libtesseract --enable-libvo_amrwbenc
  libavutil      56. 31.100 / 56. 31.100
  libavcodec     58. 54.100 / 58. 54.100
  libavformat    58. 29.100 / 58. 29.100
  libavdevice    58.  8.100 / 58.  8.100
  libavfilter     7. 57.100 /  7. 57.100
  libavresample   4.  0.  0 /  4.  0.  0
  libswscale      5.  5.100 /  5.  5.100
  libswresample   3.  5.100 /  3.  5.100
  libpostproc    55.  5.100 / 55.  5.100
Input #0, image2pipe, from 'pipe:':
  Duration: N/A, bitrate: N/A
    Stream #0:0: Video: ppm, rgb24, 320x240, 20 fps, 20 tbr, 20 tbn, 20 tbc
Stream mapping:
  Stream #0:0 -> #0:0 (ppm (native) -> h264 (libx264))
[libx264 @ 0x5630d3cc2f40] using cpu capabilities: MMX2 SSE2Fast SSSE3 SSE4.2 AVX FMA3 BMI2 AVX2
[libx264 @ 0x5630d3cc2f40] profile High, level 1.3
[libx264 @ 0x5630d3cc2f40] 264 - core 155 r2917 0a84d98 - H.264/MPEG-4 AVC codec - Copyleft 2003-2018 - http://www.videolan.org/x264.html - options: cabac=1 ref=3 deblock=1:0:0 analyse=0x3:0x113 me=hex subme=7 psy=1 psy_rd=1.00:0.00 mixed_ref=1 me_range=16 chroma_me=1 trellis=1 8x8dct=1 cqm=0 deadzone=21,11 fast_pskip=1 chroma_qp_offset=-2 threads=7 lookahead_threads=1 sliced_threads=0 nr=0 decimate=1 interlaced=0 bluray_compat=0 constrained_intra=0 bframes=3 b_pyramid=2 b_adapt=1 b_bias=0 direct=1 weightb=1 open_gop=0 weightp=2 keyint=250 keyint_min=20 scenecut=40 intra_refresh=0 rc_lookahead=40 rc=abr mbtree=1 bitrate=400 ratetol=1.0 qcomp=0.60 qpmin=0 qpmax=69 qpstep=4 ip_ratio=1.40 aq=1:1.00
Output #0, mp4, to './mission_records/8ed732bb-f2b0-4583-b24e-ff65e986945c/video.mp4':
  Metadata:
    encoder         : Lavf58.29.100
    Stream #0:0: Video: h264 (libx264) (avc1 / 0x31637661), yuv420p, 320x240, q=-1--1, 400 kb/s, 20 fps, 10240 tbn, 20 tbc
    Metadata:
      encoder         : Lavc58.54.100 libx264
    Side data:
      cpb: bitrate max/min/avg: 0/0/400000 buffer size: 0 vbv_delay: -1
frame=   32 fps=0.0 q=0.0 size=       0kB time=00:00:00.00 bitrate=N/A speed=   0x    frame=   40 fps= 39 q=0.0 size=       0kB time=00:00:00.00 bitrate=N/A speed=   0x    frame=   49 fps= 32 q=0.0 size=       0kB time=00:00:00.00 bitrate=N/A speed=   0x    frame=   58 fps= 28 q=30.0 size=       0kB time=00:00:00.20 bitrate=   1.9kbits/s speed=0.0973x    frame=   68 fps= 26 q=24.0 size=       0kB time=00:00:00.70 bitrate=   0.5kbits/s speed=0.269x    frame=   78 fps= 25 q=22.0 size=       0kB time=00:00:01.20 bitrate=   0.3kbits/s speed=0.379x    frame=   87 fps= 24 q=21.0 size=       0kB time=00:00:01.65 bitrate=   0.2kbits/s speed=0.448x    frame=   96 fps= 23 q=20.0 size=       0kB time=00:00:02.10 bitrate=   0.2kbits/s speed= 0.5x    frame=  106 fps= 22 q=20.0 size=       0kB time=00:00:02.60 bitrate=   0.1kbits/s speed=0.55x    frame=  116 fps= 22 q=19.0 size=       0kB time=00:00:03.10 bitrate=   0.1kbits/s speed=0.59x    frame=  126 fps= 22 q=18.0 size=       0kB time=00:00:03.60 bitrate=   0.1kbits/s speed=0.622x    frame=  135 fps= 21 q=18.0 size=       0kB time=00:00:04.05 bitrate=   0.1kbits/s speed=0.643x    frame=  145 fps= 21 q=18.0 size=       0kB time=00:00:04.55 bitrate=   0.1kbits/s speed=0.665x    frame=  154 fps= 21 q=18.0 size=       0kB time=00:00:05.00 bitrate=   0.1kbits/s speed=0.68x    frame=  163 fps= 21 q=18.0 size=       0kB time=00:00:05.45 bitrate=   0.1kbits/s speed=0.691x    frame=  172 fps= 20 q=18.0 size=       0kB time=00:00:05.90 bitrate=   0.1kbits/s speed=0.703x    frame=  181 fps= 20 q=17.0 size=     256kB time=00:00:06.35 bitrate= 330.3kbits/s speed=0.714x    frame=  190 fps= 20 q=17.0 size=     256kB time=00:00:06.80 bitrate= 308.5kbits/s speed=0.721x    frame=  200 fps= 20 q=17.0 size=     256kB time=00:00:07.30 bitrate= 287.3kbits/s speed=0.731x    frame=  209 fps= 20 q=17.0 size=     256kB time=00:00:07.75 bitrate= 270.6kbits/s speed=0.738x    frame=  218 fps= 20 q=17.0 size=     256kB time=00:00:08.20 bitrate= 255.8kbits/s speed=0.744x    frame=  227 fps= 20 q=17.0 size=     256kB time=00:00:08.65 bitrate= 242.5kbits/s speed=0.75x    frame=  236 fps= 20 q=17.0 size=     256kB time=00:00:09.10 bitrate= 230.5kbits/s speed=0.754x    frame=  243 fps= 19 q=-1.0 Lsize=     521kB time=00:00:12.00 bitrate= 355.6kbits/s speed=0.952x    
video:517kB audio:0kB subtitle:0kB other streams:0kB global headers:0kB muxing overhead: 0.688184%
[libx264 @ 0x5630d3cc2f40] frame I:1     Avg QP:22.37  size:  5995
[libx264 @ 0x5630d3cc2f40] frame P:80    Avg QP:10.15  size:  4827
[libx264 @ 0x5630d3cc2f40] frame B:162   Avg QP:16.39  size:   845
[libx264 @ 0x5630d3cc2f40] consecutive B-frames:  7.4%  7.4% 11.1% 74.1%
[libx264 @ 0x5630d3cc2f40] mb I  I16..4: 23.7% 54.3% 22.0%
[libx264 @ 0x5630d3cc2f40] mb P  I16..4:  2.8%  1.1%  0.4%  P16..4: 56.1%  5.1% 10.6%  0.0%  0.0%    skip:23.7%
[libx264 @ 0x5630d3cc2f40] mb B  I16..4:  0.2%  0.0%  0.0%  B16..8: 23.7%  2.3%  1.8%  direct: 5.2%  skip:66.8%  L0:46.6% L1:49.2% BI: 4.1%
[libx264 @ 0x5630d3cc2f40] final ratefactor: 13.58
[libx264 @ 0x5630d3cc2f40] 8x8 transform intra:30.2% inter:48.7%
[libx264 @ 0x5630d3cc2f40] coded y,uvDC,uvAC intra: 36.8% 38.2% 26.7% inter: 19.4% 20.4% 13.1%
[libx264 @ 0x5630d3cc2f40] i16 v,h,dc,p:  3% 64% 33%  0%
[libx264 @ 0x5630d3cc2f40] i8 v,h,dc,ddl,ddr,vr,hd,vl,hu:  5% 20% 39%  7%  5%  4%  6%  4% 10%
[libx264 @ 0x5630d3cc2f40] i4 v,h,dc,ddl,ddr,vr,hd,vl,hu: 12% 36% 22%  5%  5%  4%  5%  5%  5%
[libx264 @ 0x5630d3cc2f40] i8c dc,h,v,p: 38% 56%  4%  2%
[libx264 @ 0x5630d3cc2f40] Weighted P-Frames: Y:15.0% UV:1.2%
[libx264 @ 0x5630d3cc2f40] ref P L0: 84.0%  4.4%  7.7%  3.6%  0.3%
[libx264 @ 0x5630d3cc2f40] ref B L0: 87.7%  9.6%  2.7%
[libx264 @ 0x5630d3cc2f40] ref B L1: 93.9%  6.1%
[libx264 @ 0x5630d3cc2f40] kb/s:348.38
